<svg width="118" height="52" viewBox="0 0 118 52" fill="none" xmlns="http://www.w3.org/2000/svg">
<g clip-path="url(#clip0_710_29698)">
<path fill-rule="evenodd" clip-rule="evenodd" d="M18.5607 52C18.3129 51.3243 17.9783 50.6743 17.5351 50.0763C15.0965 46.7789 11.951 38.1914 17.5987 35.1471C17.5987 35.1471 20.7159 40.0205 24.9048 40.5282C24.9048 40.5282 25.3945 45.7093 30.458 42.8607C31.8089 42.1028 32.3104 38.9067 30.9464 36.8742L29.8718 35.2508C29.8718 35.2508 27.048 26.1151 24.5159 23.4744C24.5159 23.4744 23.64 18.9082 24.5159 16.7797C24.5159 16.7797 26.8257 8.78475 26.3387 9.69953C26.3387 9.69953 23.2102 15.2337 23.1532 15.3594C23.1532 15.3594 18.3781 18.4028 18.0871 20.1295C18.0871 20.1295 8.44316 17.1876 0.554175 25.099C0.554175 25.099 3.57406 24.2882 4.64451 24.6964C4.64451 24.6964 2.47089 25.9783 0 28.0416V0H17.0022C24.6083 0 30.7481 2.47043 35.4213 7.4113C40.1442 12.3522 42.5053 18.5673 42.5053 26.0566C42.5053 33.5978 40.1442 39.8132 35.4213 44.7018C31.0716 49.2525 25.4513 51.6851 18.5607 52Z" fill="#124FE6"/>
<path d="M62.7387 33.2221H55.1914V13.5601H62.7387C65.7423 13.5601 68.1816 14.464 70.0567 16.272C71.9506 18.08 72.8975 20.458 72.8975 23.4058C72.8975 26.3536 71.9602 28.7316 70.0852 30.5396C68.2104 32.328 65.7616 33.2221 62.7387 33.2221ZM62.7387 29.5373C64.5753 29.5373 66.0294 28.9477 67.1009 27.7686C68.1911 26.5895 68.7364 25.1353 68.7364 23.4058C68.7364 21.5978 68.2104 20.1239 67.1583 18.9841C66.1058 17.8246 64.6327 17.2448 62.7387 17.2448H59.2666V29.5373H62.7387Z" fill="#0F224E"/>
<path d="M77.5129 17.4512C76.92 17.4512 76.4032 17.2351 75.9633 16.8028C75.5424 16.3507 75.332 15.8201 75.332 15.2109C75.332 14.6016 75.5424 14.0809 75.9633 13.6485C76.4032 13.2162 76.92 13 77.5129 13C78.125 13 78.6418 13.2162 79.0627 13.6485C79.4836 14.0809 79.694 14.6016 79.694 15.2109C79.694 15.8201 79.4836 16.3507 79.0627 16.8028C78.6418 17.2351 78.125 17.4512 77.5129 17.4512ZM79.3495 33.2222H75.7052V18.9842H79.3495V33.2222Z" fill="#0F224E"/>
<path d="M88.6457 39.0001C86.2543 39.0001 84.2644 38.2927 82.6764 36.8776L84.3123 34.1657C85.3454 35.3448 86.79 35.9344 88.6457 35.9344C89.6787 35.9344 90.5682 35.6494 91.3146 35.0797C92.0798 34.5292 92.4622 33.6155 92.4622 32.3379V30.8934C91.3146 32.387 89.8891 33.1337 88.1866 33.1337C86.3881 33.1337 84.915 32.5051 83.7671 31.2473C82.6385 29.97 82.0742 28.1815 82.0742 25.8822C82.0742 23.6024 82.6385 21.8239 83.7671 20.5466C84.915 19.2691 86.3881 18.6304 88.1866 18.6304C89.9084 18.6304 91.3336 19.3575 92.4622 20.8118V18.9841H96.1355V32.2495C96.1355 33.5466 95.9061 34.6568 95.4469 35.5804C95.0069 36.5041 94.4042 37.2019 93.6391 37.6733C92.8737 38.1452 92.0798 38.4794 91.2572 38.6757C90.4538 38.8919 89.583 39.0001 88.6457 39.0001ZM89.3344 29.8029C89.9276 29.8029 90.5207 29.6457 91.1136 29.3313C91.7068 29.0168 92.1562 28.6336 92.4622 28.1816V23.5828C92.1562 23.1112 91.7068 22.728 91.1136 22.4332C90.5397 22.1187 89.9465 21.9615 89.3344 21.9615C88.2822 21.9615 87.4308 22.3153 86.7805 23.0228C86.149 23.7303 85.8334 24.6833 85.8334 25.8822C85.8334 27.0809 86.149 28.034 86.7805 28.7415C87.4308 29.449 88.2822 29.8029 89.3344 29.8029Z" fill="#0F224E"/>
<path d="M101.56 17.4512C100.967 17.4512 100.45 17.2351 100.01 16.8028C99.5892 16.3507 99.3789 15.8201 99.3789 15.2109C99.3789 14.6016 99.5892 14.0809 100.01 13.6485C100.45 13.2162 100.967 13 101.56 13C102.172 13 102.689 13.2162 103.11 13.6485C103.531 14.0809 103.741 14.6016 103.741 15.2109C103.741 15.8201 103.531 16.3507 103.11 16.8028C102.689 17.2351 102.172 17.4512 101.56 17.4512ZM103.397 33.2222H99.7519V18.9842H103.397V33.2222Z" fill="#0F224E"/>
<path d="M112.003 33.5763C110.798 33.5763 109.64 33.3794 108.531 32.9866C107.44 32.5934 106.532 32.0529 105.805 31.3652L107.383 28.7415C107.919 29.2525 108.646 29.7046 109.564 30.0977C110.482 30.4907 111.353 30.6871 112.175 30.6871C112.941 30.6871 113.515 30.5495 113.897 30.2745C114.299 29.9993 114.5 29.6261 114.5 29.1544C114.5 28.8007 114.289 28.5157 113.868 28.2995C113.467 28.0637 112.96 27.8965 112.348 27.7983C111.754 27.6999 111.094 27.5527 110.367 27.3563C109.66 27.1597 109 26.9236 108.387 26.6486C107.794 26.3735 107.287 25.9413 106.866 25.3517C106.464 24.7424 106.264 23.9955 106.264 23.1112C106.264 21.8534 106.771 20.7921 107.785 19.9275C108.799 19.0628 110.186 18.6304 111.946 18.6304C114.088 18.6304 115.954 19.2789 117.542 20.576L116.078 23.1406C115.638 22.669 115.045 22.276 114.299 21.9615C113.572 21.6471 112.797 21.4898 111.975 21.4898C111.324 21.4898 110.798 21.6274 110.396 21.9026C109.994 22.158 109.794 22.4921 109.794 22.9048C109.794 23.2192 109.994 23.4846 110.396 23.7008C110.798 23.8972 111.305 24.0446 111.917 24.1429C112.529 24.2412 113.189 24.3983 113.897 24.6146C114.605 24.8111 115.265 25.0568 115.877 25.3517C116.489 25.6268 116.997 26.0786 117.398 26.7076C117.8 27.3365 118.001 28.1029 118.001 29.0068C118.001 30.3432 117.465 31.4437 116.394 32.3084C115.342 33.1537 113.878 33.5763 112.003 33.5763Z" fill="#0F224E"/>
</g>
<defs>
<clipPath id="clip0_710_29698">
<rect width="118" height="52" fill="white"/>
</clipPath>
</defs>
</svg>
